<svg xmlns="http://www.w3.org/2000/svg" viewBox="0 0 2526.35 2528.03"><defs><style>.cls-1{opacity:0.35;}.cls-2{fill:#371a45;}.cls-3{fill:#f92323;}.cls-4{opacity:0.6;}.cls-5{fill:#fefefe;}.cls-6{fill:#ffdf00;}.cls-7{fill:#fa0;}.cls-8{fill:#fff;}.cls-9{fill:#f9f9f9;}.cls-10{opacity:0.5;}.cls-11{fill:#b3e5fc;}.cls-12{fill:#d329d3;}.cls-13{fill:#ff5722;}.cls-14{fill:#22a7f0;}.cls-15{opacity:0.7;}.cls-16{fill:#111a28;}</style></defs><g id="Camada_2" data-name="Camada 2"><g id="Layer_1" data-name="Layer 1"><g class="cls-1"><path class="cls-2" d="M1673.33,775.31C1420.92,650.9,1145.31,611,897.32,663c-250.4,52.49-442.87,192.15-541.95,393.25C152,1469.08,412.23,2014.71,935.56,2272.57q36,17.74,72.57,33.17c232,98,479,126.15,703.44,79.1,250.39-52.49,442.86-192.15,542-393.25C2456.93,1578.8,2196.65,1033.18,1673.33,775.31Z"/></g><path class="cls-3" d="M2245.19,1736.13a644.63,644.63,0,0,1-42.41,140.32q-6.34,14.7-13.47,29.16c-97.16,197.16-285.76,326.36-513.2,376.64-82.16,18.16-169.41,26-259.2,23.08-166.25-5.48-341.36-48-509.64-131-124.92-61.56-234.53-139.68-325.92-228.44-71.24-69.16-131.44-144.8-179.24-224.08C260.58,1487,228,1220.05,339.31,994.05c197.16-400.16,771.16-520.52,1282-268.76C2062.66,942.77,2312.51,1366.77,2245.19,1736.13Z"/><g class="cls-1"><path class="cls-2" d="M1921.26,929.26c222.89,263.58,298,595.55,163.75,868-83.78,170-235.58,289.5-421.66,351.4-201.4,67-420.18,53.74-616.38-27.21q-40.47-16.69-80.55-36.43C662,1935,448.67,1686.72,367.74,1425.85c-39.9-128.64-35-268,21.07-390.44q3.65-8,7.52-15.83C488.5,832.53,668.72,702.38,903.78,653.1c207.42-43.48,435.49-19.52,651.67,67.13-4.78-2.08-9.53-4.27-14.31-6.29-222.67-94-459.24-121.16-673.74-76.2C632.34,687,452.13,817.17,360,1004.22c-.51,1-1,2.11-1.49,3.16a641,641,0,0,1,40-102.67c4.14-8.4,8.51-16.63,13-24.78A641.33,641.33,0,0,0,339.29,994c-146,296.33-44.4,663,225.59,935.55l.68.68q10.58,10.67,21.5,21.14c.15.14.3.28.44.43q22.37,21.39,46.12,41.93c.29.26.6.52.9.77,4.21,3.65,8.36,7.38,12.69,10.88s8.5,7,12.73,10.44q10.77,8.79,21.78,17.39l2.06,1.62q24.12,18.72,49.46,36.51c1.57,1.1,3.16,2.19,4.74,3.29,6.71,4.64,13.44,9.25,20.22,13.77,2.27,1.51,4.53,3,6.81,4.53q11.07,7.29,22.36,14.39c1.11.7,2.2,1.42,3.32,2.12q13,8.11,26.29,16c2,1.17,4,2.31,6,3.48q10.18,6,20.52,11.78c2.87,1.61,5.76,3.21,8.64,4.8q9.61,5.31,19.38,10.48c2.74,1.46,5.48,2.93,8.24,4.37q13.65,7.13,27.54,14,11.85,5.84,23.75,11.41c2.6,1.22,5.2,2.37,7.79,3.56,5.34,2.46,10.67,4.93,16,7.31,3.24,1.44,6.5,2.81,9.75,4.23,4.71,2,9.42,4.13,14.14,6.12,3.47,1.46,6.94,2.85,10.41,4.27,4.51,1.86,9,3.74,13.55,5.55,3.61,1.44,7.24,2.81,10.86,4.22,4.37,1.69,8.74,3.42,13.12,5.06,3.74,1.41,7.48,2.74,11.23,4.11,4.27,1.56,8.54,3.15,12.81,4.66,3.81,1.35,7.62,2.63,11.43,3.93,4.22,1.45,8.43,2.92,12.64,4.32,3.86,1.28,7.72,2.49,11.58,3.73,4.17,1.34,8.35,2.7,12.52,4,3.91,1.21,7.82,2.36,11.73,3.53,4.12,1.23,8.23,2.48,12.35,3.67s8,2.23,11.93,3.34,8.1,2.27,12.16,3.35,8,2.09,12.07,3.13,8,2.06,12,3.05,8.12,1.94,12.18,2.9,7.92,1.87,11.88,2.77,8.19,1.79,12.29,2.67c3.91.84,7.82,1.68,11.73,2.48,4.15.85,8.29,1.65,12.44,2.45,3.85.75,7.69,1.5,11.53,2.2,4.18.77,8.36,1.49,12.54,2.21,3.8.66,7.61,1.32,11.4,1.94,4.23.69,8.46,1.34,12.68,2q5.58.86,11.15,1.66c4.29.62,8.58,1.18,12.87,1.75,3.64.48,7.28,1,10.92,1.4q6.49.8,13,1.49c3.58.4,7.16.8,10.73,1.16q6.57.66,13.12,1.24c3.49.32,7,.63,10.47.91,4.43.36,8.85.68,13.26,1,3.42.24,6.83.47,10.25.68,4.46.27,8.92.5,13.37.72,3.34.16,6.68.32,10,.45,4.52.18,9,.33,13.53.46q4.86.14,9.71.23,6.86.14,13.68.18l9.44,0q6.95,0,13.86-.11c3,0,6-.1,9.06-.16q7.05-.16,14.09-.41c2.9-.1,5.8-.22,8.7-.34q7.15-.32,14.27-.71,4.18-.24,8.35-.51,7.26-.48,14.48-1,4-.32,7.93-.66,7.38-.63,14.72-1.36l7.52-.8q7.49-.8,14.94-1.71c2.36-.29,4.72-.6,7.08-.9,5.08-.66,10.15-1.34,15.2-2.08,2.2-.32,4.4-.66,6.59-1,5.18-.79,10.35-1.6,15.49-2.46l6.07-1.06q7.91-1.38,15.76-2.87c1.86-.35,3.72-.73,5.59-1.1q8.05-1.59,16.07-3.3l4.92-1.09q8.26-1.83,16.48-3.78l4.26-1.05q8.49-2.07,16.91-4.28c1.17-.31,2.33-.64,3.5-1,5.84-1.57,11.65-3.17,17.43-4.85l2.59-.77q9.07-2.67,18-5.49c.56-.17,1.12-.36,1.67-.54q9.42-3,18.72-6.18l.54-.19c182.2-62.7,330.68-181.1,413.18-348.52C2342.73,1594.24,2222.75,1205.17,1921.26,929.26Z"/></g><path class="cls-2" d="M1452.84,2322.13c-183.66,0-374-45.34-552.64-133.39-250.27-123.32-448-315.78-556.85-541.93C233.89,1419.35,227.36,1185,324.94,987S612.33,651.33,859.39,599.54c245.62-51.49,518.73-11.94,769,111.39s448,315.77,556.85,541.92c109.46,227.47,116,461.8,18.4,659.85l-14.35-7.07,14.35,7.07c-97.58,198-287.39,335.63-534.45,387.43A1055.06,1055.06,0,0,1,1452.84,2322.13Zm-377-1712.61A1022.59,1022.59,0,0,0,866,630.86c-237.23,49.73-419.17,181.22-512.31,370.25-193,391.61,58.56,911.5,560.69,1158.93,243.88,120.17,509.62,158.8,748.29,108.77,237.22-49.74,419.17-181.23,512.31-370.25h0c93.15-189,86.56-413.42-18.53-631.83-105.74-219.73-298.28-406.92-542.16-527.1C1440,653.76,1254.53,609.52,1075.79,609.52Z"/><g class="cls-4"><path class="cls-5" d="M347.15,1034.53c92.18-187,272.39-317.2,507.45-366.47,214.5-45,451.07-17.82,673.74,76.2q35.25,14.88,70,32c478.74,235.9,728.29,720.61,578.22,1102.4,176.07-386.08-73.92-890.53-565.42-1132.72q-34.73-17.12-70-32c-222.67-94-459.24-121.16-673.74-76.2C632.34,687,452.13,817.17,360,1004.22c-7.63,15.5-14.48,31.21-20.73,47.09C341.79,1045.7,344.41,1040.1,347.15,1034.53Z"/></g><g class="cls-4"><path class="cls-5" d="M2081.28,1691.35s-249.83,660.07-1150.8,425.26C930.48,2116.61,1707.74,2296.42,2081.28,1691.35Z"/></g><g class="cls-1"><path class="cls-2" d="M2132,1622.61c-79.56-304-259.6-303.36-325.25-292.12-57-115.48-157-221.56-289.43-296l0,0L1353.19,857.25c-70.41-76-189.08-80.6-265.12-10.2L960.91,964.78c-111.5,37.29-202.49,109-252.72,211a389.21,389.21,0,0,0-22.68,57l-.06.18a188.31,188.31,0,0,0-16.91,137.7.25.25,0,0,0,0,.08,449.56,449.56,0,0,0,6.42,57.63C606.51,1563.28,473,1642.07,402.11,1721.85c47.8,79.28,108,154.92,179.24,224.08,87.1-38.77,178.09-128.7,238.2-233.44h0q16.26,18.24,34.15,35.6c55,53.36,120.85,100.32,196,137.32a792.29,792.29,0,0,0,104.21,42.48c-19.88,72.92-29.13,239.6,247,346.76a342.91,342.91,0,0,0,16,30.68c89.79,3,177-4.92,259.2-23.08-4-74.92-58.68-160.12-102.64-218.56-32.08-42.64-47.81-80.16-52.16-115.64-3.76-30.4.88-59.28,10.72-88.52a152.41,152.41,0,0,1,43.08-65l74.47-66.4c28.65-25.52,65.89-40.2,104.29-39,24.32.84,47.68,7.6,72.64,21.56,23.32,13.08,48.07,32.48,76.27,59.24,76.92,73,207.33,175,300,106.44l42.41-140.32C2214.54,1671,2132,1622.61,2132,1622.61Z"/></g><g class="cls-1"><path class="cls-2" d="M2304.1,222.19c-16.12-18.91-38-27.28-52.66-30.94-1.31-20.6-10.6-32.18-19-38.51-23-17.19-59.52-10.43-81.54-3.94C2128.78,72.39,2079.25,48,2040.18,41.18c-46.91-8.13-94,7.34-128.43,39.25a251.74,251.74,0,0,0-45.4.49A61.78,61.78,0,0,0,1820,109.24a62.67,62.67,0,0,0-6.51,54.7c10.31,29.85,25,52,43.54,65.95.21.15.45.2.66.34q2.7,38,17.87,79.73c23.1,63.14,74.29,113.21,136.92,134A239.41,239.41,0,0,0,2088.24,456c69.63,0,129.59-28.9,164-49.95,40.92-25,67.76-67.18,71.77-112.74C2326.56,264.61,2319.85,240.68,2304.1,222.19Z"/></g><path class="cls-6" d="M1877.88,264.81c-16.07-43.91-28.84-106.3-1.35-165.94,26.16-56.74,86.12-91.63,147.68-81,41.53,7.19,85.4,34.59,101.88,112.85,0,0,104.07-43.36,95.39,34.69,0,0,80.15,5.73,73,86.95-3.67,41.6-28.35,78.36-64,100.15-49,29.95-134.15,66.66-226,36.26C1945.75,369.35,1899.15,322.94,1877.88,264.81Z"/><path class="cls-7" d="M2286.24,204.84c-6.84,36.74-30.07,68.75-62.31,88.47-49,29.95-134.15,66.66-226,36.26-58.76-19.45-105.36-65.86-126.63-124A311.07,311.07,0,0,1,1860.58,170c-.78,35.19,7.63,68.34,17.3,94.77,21.27,58.13,67.87,104.54,126.63,124,91.85,30.4,177-6.31,226-36.26,35.62-21.79,60.3-58.55,64-100.14C2296.25,232.25,2292.65,216.76,2286.24,204.84Z"/><path class="cls-8" d="M1719.32,1488.93l-405.26,375.24c-84.3,78.06-215.92,73-294-11.31L659.84,1463.79c-78.06-84.3-73-215.92,11.31-294l405.26-375.24c84.3-78.06,215.92-73,294,11.31L1730.63,1195C1808.69,1279.26,1803.63,1410.88,1719.32,1488.93Z"/><path class="cls-2" d="M1172.81,1935.45a223.47,223.47,0,0,1-164.47-71.72L648.1,1474.66a224,224,0,0,1,12.18-316.59l405.26-375.24A224,224,0,0,1,1382.13,795l360.24,389.06c83.93,90.64,78.46,232.67-12.17,316.59h0l-405.27,375.24A223.22,223.22,0,0,1,1172.81,1935.45Zm44.75-1180.26a190.65,190.65,0,0,0-130.28,51.12L682,1181.55a192,192,0,0,0-10.44,271.37L1031.82,1842c71.93,77.69,193.67,82.38,271.37,10.44l405.27-375.23c77.69-72,82.37-193.68,10.44-271.38L1358.65,816.75a190.8,190.8,0,0,0-133.52-61.42C1222.6,755.23,1220.08,755.19,1217.56,755.19Zm501.77,733.75h0Z"/><path class="cls-9" d="M116,1035.44a595.43,595.43,0,0,0-35.45,71.86,628.89,628.89,0,0,0-26,74.57,599.52,599.52,0,0,0-16.26,76.5,540.77,540.77,0,0,0-5.2,77.59,492.29,492.29,0,0,0,6,77.49c1.08,6.41,1.65,12.91,3.15,19.25L46,1451.86c1.22,6.41,3.18,12.64,4.69,19s3,12.75,5.1,19C70.57,1540.16,91.66,1589,116,1637.3c-35.78-40.6-64.41-87.93-84.78-139.07-10-25.64-18.08-52.2-23.11-79.46-3-13.54-4.31-27.37-6.16-41.12-1-13.84-2.08-27.69-2-41.58A453.52,453.52,0,0,1,7.4,1253.3a461.52,461.52,0,0,1,22.54-79.62,444.68,444.68,0,0,1,36.26-73.76C80.68,1076.78,96.61,1054.44,116,1035.44Z"/><path class="cls-8" d="M685,1202.58c-22.28,340.52-436.45,407.06-349.94,598.93,117.62,260.88,502.42-82.14,520.62-368.72"/><g class="cls-1"><path class="cls-2" d="M855.7,1432.77c-17.92,282.12-391,618.92-514.87,380.56,48.5,40.4,39.75-176.83,105.19-212.1,143.45-77.3,216.74,328,369.37-220.34L684.87,1204.81c.08-.76.12-1.48.16-2.24Z"/></g><path class="cls-2" d="M463.82,1910.24c-63.05,0-113.22-35.4-143.31-102.15-46.15-102.36,33.22-171.22,125.12-251,99.47-86.31,212.21-184.13,223.43-355.6a16,16,0,1,1,31.93,2.09c-12.09,184.8-135.35,291.75-234.39,377.68C368.7,1666.24,315,1718,349.68,1794.93c29.45,65.32,77.19,92.47,141.89,80.7,70.68-12.87,154.54-72.19,224.34-158.7,72.93-90.38,118.07-194.32,123.84-285.16a16,16,0,0,1,31.93,2c-6.18,97.29-53.88,207.82-130.87,303.23-74.47,92.3-165.5,155.88-243.51,170.08A187.45,187.45,0,0,1,463.82,1910.24Z"/><path class="cls-6" d="M471.53,1759.89l-13,9.78a12.17,12.17,0,0,1-17-2.4L221.13,1474.48a12.17,12.17,0,0,1,2.41-17l13-9.78a12.17,12.17,0,0,1,17,2.41l220.37,292.78A12.17,12.17,0,0,1,471.53,1759.89Z"/><path class="cls-2" d="M243.84,1445.22a12.16,12.16,0,0,1,9.73,4.84l220.37,292.79a12.17,12.17,0,0,1-2.41,17l-13,9.78a12.16,12.16,0,0,1-17-2.4L221.13,1474.48a12.18,12.18,0,0,1,2.4-17l13-9.78a12.1,12.1,0,0,1,7.31-2.44m0-26.34h0a38.23,38.23,0,0,0-23.15,7.74l-13,9.78a38.55,38.55,0,0,0-7.61,53.91l220.36,292.8a38.7,38.7,0,0,0,30.78,15.34,38.16,38.16,0,0,0,23.13-7.73l13-9.79A38.51,38.51,0,0,0,495,1727L274.61,1434.23a38.69,38.69,0,0,0-30.77-15.35Z"/><g class="cls-10"><path class="cls-8" d="M471.84,1752.09,251.47,1459.31a12.17,12.17,0,0,0-17-2.41l-13,9.78a11.87,11.87,0,0,0-2.51,2.65,12.13,12.13,0,0,1,4.61-11.89l13-9.78a12.17,12.17,0,0,1,17,2.41l220.37,292.78a12.14,12.14,0,0,1,.1,14.4A12.06,12.06,0,0,0,471.84,1752.09Z"/></g><path class="cls-11" d="M310,1657.83l-.68-.53,5.28-6,4.6-6.56.68.54,92.69-105.79c2.37,3.71,176.8,172.85,239.68,233.76a34.44,34.44,0,0,1,3.12,46l-96.7,123.19a34.45,34.45,0,0,1-45.42,7.9c-74.11-46.61-279.83-175.88-284-177.3Z"/><path class="cls-12" d="M307.81,1783.78c33.53,20.49,153.82,96.08,201.24,125.9a25.47,25.47,0,0,0,33.59-5.83l71.5-91.09a25.47,25.47,0,0,0-2.31-34c-40.24-39-142.24-137.88-170.1-165.58a9,9,0,0,0-13.47.84L305.43,1770.49A9,9,0,0,0,307.81,1783.78Z"/><g class="cls-4"><path class="cls-5" d="M632.2,1848.32a34.44,34.44,0,0,0-3.12-46c-62.88-60.92-237.31-230-239.68-233.76l-84,95.82,4.6-6.56-.68-.53,5.28-6,4.6-6.56.68.54,92.69-105.79c2.37,3.71,176.8,172.85,239.68,233.76a34.44,34.44,0,0,1,3.12,46l-96.7,123.19c-.64.81-1.4,1.47-2.09,2.21Z"/></g><path class="cls-2" d="M531.63,1968.78a47.53,47.53,0,0,1-25.35-7.33c-168.45-106-273.82-171.77-282.52-176.5a13.16,13.16,0,0,1-5.25-19.51l78.08-111.36a13.14,13.14,0,0,1,2.87-5.46l4.8-5.48,4.19-6a13.41,13.41,0,0,1,4.63-4.08l89.63-102.29a13.17,13.17,0,0,1,20.2.47c6.62,7.28,97.77,96.12,238.54,232.52a47.48,47.48,0,0,1,4.31,63.57l-96.7,123.19A47.47,47.47,0,0,1,531.63,1968.78ZM248.2,1769c24,14.58,89.3,55.22,272.1,170.18a21.22,21.22,0,0,0,28.05-4.88l96.7-123.19a21.21,21.21,0,0,0-1.93-28.4C488,1632.4,433.05,1578.61,413.19,1558.78l-83.37,95.15a13,13,0,0,1-2.53,2.23l-1.87,2.67a10.57,10.57,0,0,1-.88,1.12l-2.15,2.46a13.3,13.3,0,0,1-1.57,3Z"/><path class="cls-8" d="M233.1,1775l182.36-232.32a24,24,0,0,0-4.07-33.75L404,1503.1a24,24,0,0,0-33.76,4.07L187.86,1739.48a24,24,0,0,0,4.06,33.76l7.42,5.82A24,24,0,0,0,233.1,1775Z"/><path class="cls-2" d="M214.11,1797.37a36.93,36.93,0,0,1-22.89-7.95l-7.43-5.83a37.24,37.24,0,0,1-6.29-52.24L359.85,1499a37.22,37.22,0,0,1,52.25-6.3l7.42,5.83a37.27,37.27,0,0,1,6.3,52.25L243.46,1783.13a37,37,0,0,1-24.82,14A38.36,38.36,0,0,1,214.11,1797.37Zm175-286.23a10.86,10.86,0,0,0-8.57,4.16L198.22,1747.61a10.87,10.87,0,0,0,1.83,15.27l7.43,5.83a10.87,10.87,0,0,0,15.26-1.84h0L405.1,1534.56a10.89,10.89,0,0,0-1.84-15.28l-7.42-5.82A10.84,10.84,0,0,0,389.14,1511.14Z"/><g class="cls-1"><path class="cls-2" d="M213.83,1709.89s36.77,15.52,199.49-186.1l2.07,17.21L228.92,1778.55l-17.63,6.1-28.41-21.16s-8.85-11.4-4.53-16.91S213.83,1709.89,213.83,1709.89Z"/></g><g class="cls-1"><path class="cls-2" d="M427.29,1557l-81,114c-25.71,36.17-12.66,86.92,27.45,105.9,84.35,39.93,218.63,85.93,283.75,14.15l-.13,23L546.91,1954.72l-28.19-2.19L233.1,1775,416,1545.91Z"/></g><g class="cls-1"><path class="cls-2" d="M218.93,1469.33s85.82,94.46,107.57,66.76l10.57,8.29s-41.19,56.1-41.56,53-80.84-122.59-80.84-122.59Z"/></g><path class="cls-8" d="M268.67,1800.91s88.17-109.39,179.91-44.88c84.78,59.62,71.94,175.73,35.56,193.38C428.61,1976.35,261.44,1964.26,268.67,1800.91Z"/><g class="cls-1"><path class="cls-2" d="M465.12,1774.54c7.33,44.35-5.64,85-26,94.87-35.52,17.24-116.68,18.41-168.69-25.67,18.3,127.18,162.81,135.36,213.69,110.67C517.94,1938,531.37,1836.65,465.12,1774.54Z"/></g><path class="cls-2" d="M425.67,1976.6c-35.26,0-74.5-8.94-106-29.63-32.58-21.43-70.66-64.28-67-146.77a16,16,0,0,1,3.52-9.33C290,1749,375.52,1685.09,457.79,1742.94c57.19,40.22,73.61,103.55,69.9,149.41-2.82,35-16.5,61.72-36.56,71.46C474.26,1972,451,1976.6,425.67,1976.6ZM284.48,1807c-1,51.42,16.74,89.5,52.81,113.21,46.56,30.63,112.26,28.18,139.87,14.79,7.75-3.76,16.64-20.51,18.64-45.25,3-37-10.26-88.19-56.42-120.65C369.07,1719.67,300.43,1789,284.48,1807Z"/><path class="cls-13" d="M1899.76,54.29s-18.57-2.35-45.31.24c-31.86,3.08-52.11,35.37-41.66,65.62,7.56,21.87,19.7,45.27,39,59.71"/><path class="cls-2" d="M1851.77,195.86a16,16,0,0,1-9.57-3.19c-19-14.25-34-36.88-44.53-67.28a65.58,65.58,0,0,1,6.81-57.17,64.66,64.66,0,0,1,48.43-29.62c28.19-2.73,48-.29,48.86-.19a16,16,0,0,1-4,31.75c-.54-.06-17.64-2-41.78.29a32.82,32.82,0,0,0-24.58,15.06,33.73,33.73,0,0,0-3.5,29.42c8.39,24.24,19.64,41.78,33.46,52.12a16,16,0,0,1-9.6,28.81Z"/><path class="cls-2" d="M2075.08,416.08a239.4,239.4,0,0,1-75.6-12.09c-62.49-20.68-113.56-70.66-136.62-133.68-24.37-66.58-24.66-126.51-.86-178.13,29.81-64.67,97.65-101.72,164.94-90,39,6.75,88.49,31.22,110.45,107.73,21.88-6.51,58.62-13.46,81.58,3.75,8.4,6.3,17.65,17.86,18.88,38.5,14.55,3.59,36.58,11.91,52.75,30.87,15.66,18.4,22.33,42.22,19.81,70.81-4,45.41-30.74,87.43-71.55,112.39C2204.48,387.22,2144.61,416.08,2075.08,416.08ZM2002.14,32c-46.31,0-90.22,28.32-111.08,73.57-20.13,43.67-19.51,95.39,1.85,153.74h0c19.73,53.93,63.33,96.66,116.63,114.3,83.58,27.66,161.76-3.61,212.62-34.72,32.19-19.69,53.26-52.55,56.38-87.9,1.74-19.73-2.4-35.62-12.3-47.24-16.84-19.75-45.61-22.32-45.89-22.35a16,16,0,0,1-14.77-17.72c1.37-12.31-.59-20.54-5.8-24.46-12.78-9.57-47.86-1.91-67.54,6.3a16,16,0,0,1-21.82-11.47c-12.31-58.52-42.24-92.3-88.94-100.38A113,113,0,0,0,2002.14,32Z"/><g class="cls-4"><path class="cls-5" d="M2105.91,292.42s61.25-99.17-58.22-89.07c0,0,78,29.84,58.22,89.07"/></g><g class="cls-4"><path class="cls-5" d="M2222,189.08A16.57,16.57,0,0,0,2233.4,195c.23,0,19.38,1.72,35.52,13.05-.91-1.31-1.84-2.61-2.87-3.83-16.73-19.81-45.52-22.36-45.81-22.38a13.59,13.59,0,0,1-1.69-.31A16.59,16.59,0,0,0,2222,189.08Z"/></g><g class="cls-4"><path class="cls-5" d="M1906.49,272.32c-21.3-58.24-21.93-109.85-1.85-153.39,20.78-45.1,64.52-73.31,110.66-73.31a113.29,113.29,0,0,1,19.27,1.65c17.78,3.08,33.1,9.94,46,20.46-15.08-18.11-34.79-29.41-59.13-33.62a113.09,113.09,0,0,0-19.26-1.65c-46.14,0-89.89,28.21-110.67,73.3-20.07,43.55-19.44,95.16,1.86,153.4a190.94,190.94,0,0,0,50.75,75.35A190.72,190.72,0,0,1,1906.49,272.32Z"/></g><g class="cls-4"><path class="cls-5" d="M2123.15,147.31a16.46,16.46,0,0,0,22.43,11.8c16.41-6.84,43.52-13.29,59.32-9.64-.88-4.5-2.66-7.83-5.4-9.88-12.63-9.47-47.51-1.81-67.08,6.35a16.32,16.32,0,0,1-9.38.9C2123.07,147,2123.12,147.15,2123.15,147.31Z"/></g><path class="cls-2" d="M2043.7,204.47a65.27,65.27,0,0,1,14-6.75,75.55,75.55,0,0,1,15.45-3.8,62.84,62.84,0,0,1,33.44,4.07,56.63,56.63,0,0,1,26.7,24.24c6,10.5,8.9,21.87,10.18,32.82l0,.2a8.86,8.86,0,0,1,.06,1.26,61,61,0,0,1-1,9.6,82.66,82.66,0,0,1-2,8.71,76.42,76.42,0,0,1-7.16,16.43,65.58,65.58,0,0,1-25.85,24.63,74.6,74.6,0,0,1-32.86,7.36,129.41,129.41,0,0,1-15.93-1.62c-5.15-1.32-10.2-2.69-15.07-4.41,5.16-1.22,10.15-2.11,15-2.93,4.82-1.47,9.59-2.41,14.1-3.9,9-3.1,17.11-7,23.74-12.13a54.6,54.6,0,0,0,14.83-18.93c.94-1.76,1.54-3.74,2.35-5.57.62-1.94,1.25-3.89,1.72-5.88a56.91,56.91,0,0,0,1.25-6c.33-1.87.47-4.31.55-5.38l.08,1.46a80.83,80.83,0,0,0-6-24.15A41.86,41.86,0,0,0,2097,216.16c-6.45-4.64-14.86-7.65-24-9.42A142.73,142.73,0,0,0,2043.7,204.47Z"/><circle class="cls-2" cx="1952.64" cy="130.75" r="21.68"/><path class="cls-9" d="M251.91,2018.63a241,241,0,0,0,8.73,28.55c1.74,4.65,3.39,9.29,5.36,13.84,1.82,4.58,3.82,9.09,5.95,13.54A416.33,416.33,0,0,0,300.28,2126a472.9,472.9,0,0,0,74.89,88.63,575.83,575.83,0,0,0,92.61,69.27c33.18,19.88,68.15,36.77,104.08,51.57,72.23,28.84,148.18,49.41,225.78,63.5,77.57,14.58,156.52,23.34,236.27,31.87a1160.5,1160.5,0,0,1-240.85-1.09c-80.28-8.63-160.16-27.22-236.12-57.64-37.75-15.71-74.58-34.11-109.11-56.52a514.77,514.77,0,0,1-94.62-79.05,429.25,429.25,0,0,1-69.8-101.1c-8.64-18.56-16.23-37.54-21.7-57.12S252.25,2038.76,251.91,2018.63Z"/><path class="cls-9" d="M206.45,2252a248.12,248.12,0,0,0,17.68,35.21A317.52,317.52,0,0,0,246,2319.6c3.83,5.24,8,10.22,12.05,15.26,4.33,4.83,8.36,9.88,12.93,14.46s8.85,9.41,13.53,13.85c2.31,2.25,4.56,4.56,6.92,6.74l7.21,6.45c38.68,34.07,83.07,61,130.46,81.39,47.31,20.63,97.52,34.62,148.56,45.35,51.18,10.41,103.41,16.44,156.18,21.71A705.62,705.62,0,0,1,574.51,2522c-26.48-3.63-52.92-8.36-78.85-15.46-13.07-3.16-25.82-7.51-38.65-11.6-6.42-2-12.62-4.71-18.95-7s-12.62-4.75-18.75-7.61A444.28,444.28,0,0,1,348,2441.77a380.89,380.89,0,0,1-62.59-51.58A332.91,332.91,0,0,1,236,2326.27a283,283,0,0,1-17.94-36C213,2277.86,208.7,2265.13,206.45,2252Z"/><path class="cls-9" d="M2478.15,1583c8.22,16.32,14.6,33.53,20.38,50.92s10.37,35.22,14.45,53.18a581.09,581.09,0,0,1,13.21,110c1.79,74.26-11.82,149.88-41.66,219.1-3.94,8.55-7.69,17.2-11.87,25.63l-13.4,24.86c-2.16,4.18-4.82,8.07-7.34,12.05l-7.61,11.88c-2.57,3.94-5,8-7.68,11.82l-8.45,11.28-8.5,11.23a138.37,138.37,0,0,1-8.79,11L2392.32,2157c-3,3.59-6.41,6.8-9.75,10.08l-10,9.8c-6.73,6.46-13.29,13.08-20.6,18.88a589.48,589.48,0,0,1-190.5,109.2c61.29-39.41,118.76-82.58,168.07-133,6.45-6,12.11-12.76,17.92-19.34l8.77-9.8a128.82,128.82,0,0,0,8.52-10l16.19-20.62a124.69,124.69,0,0,0,7.7-10.58l7.4-10.77c19.52-28.81,36.95-59.06,50.32-91.14,27.49-63.79,43-132.78,47.25-203.23a791.93,791.93,0,0,0-.73-106.47c-.41-9-1.46-17.82-2.21-26.78l-3.3-26.75c-1.13-8.94-2.53-17.85-4.11-26.75C2481.85,1600.8,2480.07,1591.93,2478.15,1583Z"/><path class="cls-9" d="M2067.88,515.41c-17.34,4.39-35.24,6.1-53.17,7a320.26,320.26,0,0,1-54-2.55C1924.83,515.3,1889,504,1857.51,484.3c-15.64-9.9-30.42-21.54-42.75-35.53a196.12,196.12,0,0,1-30.85-46c-15.84-33.32-22.25-69.95-20.92-105.48,7.69,34.77,18.58,68.15,35.87,97.46a226.59,226.59,0,0,0,30.91,39.86l9,8.75,9.67,8A204,204,0,0,0,1869,465.87c28.5,17.93,61,29.66,94.64,37.33a473.89,473.89,0,0,0,51.43,8.57C2032.5,513.85,2050.07,515,2067.88,515.41Z"/><path class="cls-9" d="M2402.31,332c-.54,2.44.21,4.86.62,7.33l1.35,7.44c.9,5,1.42,10.09,1.93,15.23a128.21,128.21,0,0,1-1.48,31.33c-3.57,20.94-13.89,41.77-29.82,57a118.61,118.61,0,0,1-26.36,19.1c-4.87,2.23-9.6,4.81-14.66,6.43-2.5.88-5,1.87-7.47,2.65l-7.61,2a155.21,155.21,0,0,1-61.29,2.8c19.44-6.24,38.26-11.83,55.62-19.6a197.3,197.3,0,0,0,24.79-12.88,136.12,136.12,0,0,0,21.22-16.65c12.85-12.34,22.27-27.81,28.49-45.37a211.27,211.27,0,0,0,7.58-27.55c1.09-4.78,1.88-9.65,2.84-14.59l1.48-7.47C2400.24,336.87,2400.52,334,2402.31,332Z"/><path class="cls-9" d="M2450.31,443.14c-1,1.95-.91,4.19-1.1,6.38l-.43,6.63c-.29,4.45-.87,8.89-1.5,13.37a117.87,117.87,0,0,1-7.47,26.33,91.67,91.67,0,0,1-35.71,42.9,105.44,105.44,0,0,1-25.73,11.61,120,120,0,0,1-27.32,4.44,145.77,145.77,0,0,1-53.28-7c17.82-1,35.18-2,51.82-5.23a176.28,176.28,0,0,0,24.15-6.44,116.84,116.84,0,0,0,21.86-10.68c13.69-8.53,24.75-20.69,33.22-35a174.9,174.9,0,0,0,11-22.92c1.67-4,3.12-8.11,4.68-12.24l2.38-6.25C2447.85,447,2448.5,444.61,2450.31,443.14Z"/><path class="cls-8" d="M2262.11,1786.09c-102.53,151.44-277.64,16.76-375.45-76.08-65.19-61.88-113.92-88.56-166.47-90.32-43-1.4-84.57,15-116.61,43.56l-83.23,74.2a170.24,170.24,0,0,0-48.2,72.64c-23.8,70.76-20.28,139.72,46.36,228.24,81.07,107.76,194.88,297.08,32.76,381.68-32.61,17-63,16.52-90.12,6.2-82.16-31.12-135.6-152-135.6-152-404.48-157-261.2-428.16-261.2-428.16-209.88-241.64-404.77-664-404.77-664l474.2-422.92s63.88,36.56,154.41,95.52c0,0,0,0,0,0,117.8,76.72,280.68,191.28,406.64,312.44,20.08,19.24,39.2,38.72,57,58.2,0,0,281.2-99.72,391,320,0,0,116.83,68.48,136.36,155.16C2285.46,1727.65,2282,1756.77,2262.11,1786.09Z"/><g class="cls-1"><path class="cls-2" d="M2262.11,1786.09c-102.53,151.44-277.64,16.76-375.45-76.08-65.19-61.88-113.92-88.56-166.47-90.32-43-1.4-84.57,15-116.61,43.56l-83.23,74.2a170.24,170.24,0,0,0-48.2,72.64c-23.8,70.76-20.28,139.72,46.36,228.24,81.07,107.76,194.88,297.08,32.76,381.68-32.61,17-63,16.52-90.12,6.2,58.59-16.44,169.36-66.48,131.84-205.6-50.29-186.44-166.29-79.44-226.64-276S1557,1504.89,1721.74,1517c214.14,15.7,191,158.17,256.21,226.29,75.36,78.72,269.4,106.12,301.36-42.88C2285.46,1727.65,2282,1756.77,2262.11,1786.09Z"/></g><path class="cls-2" d="M1136.45,754.42c59,27.8,115.29,60.22,170.53,94.43q82.65,51.63,161.57,109.14c52.38,38.58,103.75,78.65,153.27,121.09,49.35,42.66,97.13,87.29,141.88,135.34l-17.15-4.28c3.76-1.26,6.6-2.06,9.81-2.9s6.24-1.54,9.34-2.22c6.21-1.36,12.43-2.41,18.67-3.33a299.75,299.75,0,0,1,37.6-2.78c25.11,0,50.35,2.78,74.69,9.43,48.72,13.1,93.53,39.92,128.53,75.29a368.81,368.81,0,0,1,47.25,57.17c7.25,10,13.23,20.71,19.59,31.21,3.3,5.2,5.83,10.76,8.74,16.14l8.45,16.27c21.16,44,36.85,90.1,49.22,136.75l-7.38-9.75c11,6.64,20.68,13.34,30.59,20.56s19.33,14.74,28.56,22.7c18.47,15.89,35.81,33.45,50.93,53.39,14.85,20,27.84,42.75,33.68,68.88.62,3.28,1.51,6.49,1.87,9.84l1.1,10c.14,6.77.39,13.57-.57,20.33a65.46,65.46,0,0,1-1.53,10.07c-.76,3.31-1.36,6.67-2.31,9.92-2.15,6.39-4.18,12.87-7.27,18.78-2.62,6.21-6.27,11.68-9.66,17.33-3.55,5.43-7.42,10.29-11.13,15.45-4.09,4.88-8.25,9.74-12.6,14.43l-7,6.73-3.49,3.35-3.8,3.08-7.67,6.08c-2.61,2-5.47,3.64-8.2,5.45-5.38,3.79-11.48,6.5-17.33,9.55-12.16,5.17-24.88,9.48-38,11.15a158.06,158.06,0,0,1-38.95,1c-6.46-.38-12.69-1.64-19-2.61-6.18-1.35-12.42-2.6-18.43-4.38a323.77,323.77,0,0,1-68.22-28.64c-42.76-23.56-80.89-53.12-116.8-84.56-8.92-7.92-17.79-15.91-26.43-24.09s-16.88-15.81-25.55-23.39c-17.21-15.08-35.2-28.94-54.12-40.44-19-11.25-39-20-59.8-23.51a144.18,144.18,0,0,0-62.83,2.87,157.65,157.65,0,0,0-56.46,29c-2.1,1.65-4.08,3.45-6.14,5.16l-6.55,5.83-13.15,11.73-26.3,23.45-26.3,23.46-13,11.59a149,149,0,0,0-11.22,11.4,151.82,151.82,0,0,0-31.49,55.07c-6.81,21.21-11.54,42.81-11.73,64.41l-.08,8.09.49,8.07c.11,5.39,1.24,10.7,1.8,16.06,1.05,5.3,2,10.62,3.35,15.87,1.56,5.21,2.7,10.52,4.71,15.63,7.1,20.68,17.43,40.52,29.64,59.4,3,4.74,6.1,9.45,9.5,14s6.45,9.09,10.12,14c7.15,9.52,14.07,19.24,20.93,29,27.13,39.26,52.15,80.51,70.68,125.68a323.05,323.05,0,0,1,20.68,71c1.08,6.17,1.61,12.51,2.24,18.8.26,6.38.8,12.71.43,19.18a157.84,157.84,0,0,1-5.39,38.58c-3.15,12.81-8.89,25-15.41,36.44-3.7,5.47-7.08,11.22-11.46,16.13-2.11,2.51-4.11,5.15-6.35,7.53l-6.92,6.92-3.49,3.42-3.73,3.09-7.47,6.16c-5.16,3.8-10.47,7.37-15.78,10.88-5.55,3.1-10.82,6.39-16.62,9.29-6,2.73-11.85,5.73-18.31,7.63-6.23,2.39-12.9,3.67-19.5,5.07-3.32.58-6.74.79-10.11,1.17a65.23,65.23,0,0,1-10.18.37c-6.82.19-13.55-.84-20.26-1.75l-9.85-2.24c-3.29-.74-6.37-2-9.56-3-25.3-8.78-46.38-24.28-64.59-41.31-18.09-17.3-33.56-36.52-47.24-56.69q-10.28-15.12-19.29-31c-6-10.67-11.59-21.06-16.94-32.74l8.84,8.45c-45-17.63-89-38.57-130.2-64.92l-15.15-10.4c-5-3.52-10.19-6.78-15-10.7-9.69-7.58-19.53-14.93-28.56-23.41-4.53-4.21-9.41-8-13.64-12.55l-13-13.28c-4.3-4.46-8.16-9.39-12.25-14.07-2-2.38-4.07-4.71-6-7.14l-5.55-7.55c-30.22-39.73-50.19-88.3-55.27-138.58a293,293,0,0,1,2.51-75.26,316.62,316.62,0,0,1,8.58-36.67c1.84-6,3.84-12,6.1-17.91,1.13-3,2.3-5.93,3.58-8.88s2.52-5.73,4.29-9.24l2.07,18q-38.88-45-74.28-92.42c-23.85-31.43-46.4-63.76-68.1-96.6q-32.19-49.5-60.75-101.12c-18.86-34.48-36.46-69.66-51.44-106.17A5.37,5.37,0,0,1,807,1455c23.47,31.6,45.27,64,66.93,96.4l64.55,97.25q32.14,48.6,66.08,95.85c22.83,31.31,46.56,61.94,71.88,91.06a16,16,0,0,1,2.24,17.63l-.18.34c-.89,1.8-2.16,4.51-3.18,6.93s-2.1,5-3.08,7.64c-2,5.16-3.74,10.45-5.37,15.79a284.35,284.35,0,0,0-7.64,32.65,260.06,260.06,0,0,0-2.24,66.74c4.54,44.33,21.88,86.91,49.12,122.77l5,6.8c1.77,2.2,3.65,4.31,5.47,6.47,3.73,4.24,7.18,8.71,11.12,12.79l11.93,12.15c3.82,4.18,8.4,7.67,12.56,11.55,8.29,7.82,17.5,14.66,26.51,21.73,4.4,3.66,9.3,6.71,14,10l14.21,9.77c38.87,24.84,81,45,124.44,62a16,16,0,0,1,8.76,8.26l.09.19c4.43,9.68,9.91,20.05,15.46,29.81s11.62,19.5,18,28.84c12.67,18.71,26.87,36.24,42.77,51.44,15.95,15,33.79,27.7,53.08,34.32a84.91,84.91,0,0,0,29.36,5.19,40.8,40.8,0,0,0,7.41-.26c2.45-.31,4.93-.41,7.38-.83,4.87-1.12,9.79-1.95,14.55-3.83,4.87-1.36,9.47-3.82,14.18-5.9,4.7-2.34,9.41-5.3,14.13-7.9,4.46-3,8.92-6,13.23-9.11l6.11-5.06,3.07-2.51,2.78-2.76,5.55-5.53c1.79-1.88,3.31-4,5-5.94,3.51-3.84,6-8.34,9-12.55,5-8.93,9.49-18.18,11.92-28.26a126.3,126.3,0,0,0,4.29-31c.34-5.28-.17-10.68-.35-16-.57-5.38-1-10.78-1.94-16.17a291.73,291.73,0,0,0-18.7-64c-17.15-41.87-41.07-81.54-67.32-119.49-6.65-9.46-13.35-18.88-20.31-28.15-3.41-4.51-7-9.69-10.57-14.57s-7-10-10.28-15.15c-13.28-20.54-24.88-42.63-33.05-66.42-2.26-5.85-3.67-12.05-5.44-18.1-1.58-6.11-2.72-12.38-3.91-18.59-.72-6.32-2-12.57-2.14-18.94l-.56-9.53.07-9.52c.27-25.48,5.78-50.31,13.32-73.74a183.83,183.83,0,0,1,38-66.38,178,178,0,0,1,13.49-13.7l13.29-11.92,26.3-23.45,26.3-23.46,13.15-11.72,6.62-5.89c2.45-2.06,4.83-4.19,7.34-6.18a189.86,189.86,0,0,1,68.07-34.92,176.17,176.17,0,0,1,76.81-3.51c25.62,4.33,49.38,14.91,70.7,27.58,21.25,12.91,40.57,27.91,58.7,43.77,9,7.88,18,16.23,26.44,24.19s17,15.71,25.64,23.39c34.71,30.41,71.4,58.69,111,80.51a292,292,0,0,0,61.42,25.87c5.25,1.57,10.56,2.6,15.84,3.77,5.3.79,10.6,1.91,15.89,2.17a125.84,125.84,0,0,0,31.31-.72c10.29-1.26,20-4.71,29.43-8.62,4.52-2.44,9.27-4.41,13.49-7.46,2.14-1.45,4.39-2.71,6.47-4.28l6.13-4.89,3.06-2.45,2.84-2.76,5.72-5.49c3.61-3.92,7.1-8,10.56-12.1,3.12-4.39,6.6-8.74,9.46-13.14,2.61-4.44,5.58-8.73,7.48-13.41,2.42-4.51,3.8-9.31,5.46-14,.7-2.39,1.08-4.84,1.67-7.24a40.43,40.43,0,0,0,1.1-7.33,84.69,84.69,0,0,0-1.81-29.76c-4.37-19.92-15-39.09-28-56.65-13.29-17.52-29.09-33.63-46.23-48.36q-12.84-11.07-26.6-21.15c-9.07-6.62-18.75-13.25-27.86-18.76l-.14-.09a16.17,16.17,0,0,1-7.25-9.66c-11.95-45.09-27.05-89.28-47.05-130.88l-8-15.32c-2.74-5-5.12-10.33-8.21-15.15-6-9.79-11.53-19.86-18.25-29.08a336.92,336.92,0,0,0-43.28-52.41c-31.76-32.1-71.35-55.54-114.33-67.17-21.49-5.9-43.86-8.35-66.17-8.35a269.7,269.7,0,0,0-33.37,2.46c-5.5.81-11,1.74-16.37,2.92-2.69.59-5.37,1.2-8,1.9s-5.4,1.5-7.26,2.11l-.27.09a16.21,16.21,0,0,1-16.88-4.36c-43.48-46.75-90.78-90.16-139.66-131.76-24.88-20.33-49.58-40.86-75.23-60.3-25.13-20-51.2-39-77-58.22-51.92-38.09-104.75-75-157.84-111.6S1184,801,1131.15,763.68l-.07,0a5.35,5.35,0,0,1,5.37-9.21Z"/><path class="cls-8" d="M1156.25,1599.65c-28.6,53.34-98.38,105.21-148.45,137.55a63.55,63.55,0,0,1-88.75-20.38h0a63.53,63.53,0,0,1,15.89-83.75c44.21-33.41,108.82-85.58,141.79-128.18"/><g class="cls-1"><path class="cls-2" d="M1156.25,1599.64c-28.59,53.37-98.39,105.2-148.44,137.58a63.68,63.68,0,0,1-96.62-40.07,63.44,63.44,0,0,0,58.9-5.27c50-32.28,119.66-84.06,148.35-137.31Z"/></g><path class="cls-2" d="M973.55,1763.39a80,80,0,0,1-17.92-2,79.61,79.61,0,0,1-30.34-141c65.05-49.16,114.34-93.63,138.78-125.21,5.11-6.6,20.57-19.62,53.84,2s73.11,71.62,52.44,110.16h0c-29.86,55.69-100.16,108.73-153.87,143.43A78.94,78.94,0,0,1,973.55,1763.39Zm113.7-246c-34,42.71-96.09,93.24-142.67,128.44a47.59,47.59,0,0,0,54.53,77.93c71.46-46.16,122.25-92.92,143-131.68,5.68-10.59-3.18-26.77-7.26-33.24C1119.72,1534.76,1096.11,1519.4,1087.25,1517.4Zm69,82.25h0Z"/><path class="cls-8" d="M1486.09,1325.24c57.65-18.42,121.34-77.6,162.26-121a63.55,63.55,0,0,0-3.89-91h0a63.54,63.54,0,0,0-85.25.39c-40.9,37.4-104,91.44-151.84,116.1"/><g class="cls-1"><path class="cls-2" d="M1648.36,1204.31c-40.94,43.32-104.61,102.53-162.29,120.93l-37.79-45.8c57.59-18.52,121.18-77.6,162-120.89a63.25,63.25,0,0,0,15.94-56.67,63.56,63.56,0,0,1,22.13,102.43Z"/></g><path class="cls-2" d="M1476.46,1342.74c-36.54,0-70.84-41.39-84.28-73.87-15.16-36.63.45-49.47,7.87-53.29,35.49-18.28,88.18-58.66,148.37-113.69A79.59,79.59,0,0,1,1660,1215.26c-43.89,46.51-108.84,106-169,125.21A47.35,47.35,0,0,1,1476.46,1342.74Zm-58.7-100.32c.36,9.08,11.16,35.1,32.09,54.4,5.62,5.18,19.92,16.81,31.37,13.18h0c41.89-13.39,97.11-54.83,155.5-116.7a47.59,47.59,0,0,0-66.71-67.8C1526.92,1164.91,1465.94,1216.76,1417.76,1242.42Z"/><path class="cls-8" d="M1397.49,1184.84l126.79,152.4a67.1,67.1,0,0,1-8.64,94.21L1235,1665a67.08,67.08,0,0,1-94.16-8.68L1014,1503.88a67,67,0,0,1,8.64-94.13l280.67-233.51a67,67,0,0,1,94.17,8.6Z"/><path class="cls-2" d="M1192.29,1696.36a82.74,82.74,0,0,1-63.77-29.83l-126.81-152.42a83,83,0,0,1,10.71-116.68l280.68-233.51a83,83,0,0,1,116.68,10.69L1536.59,1327a83.06,83.06,0,0,1-10.7,116.68l-280.68,233.52A82.5,82.5,0,0,1,1192.29,1696.36Zm153.64-519.53a50.3,50.3,0,0,0-32.37,11.69L1032.88,1422a51.06,51.06,0,0,0-6.57,71.61l126.81,152.42a50.91,50.91,0,0,0,71.62,6.58l280.68-233.52h0a51,51,0,0,0,6.57-71.61l-126.81-152.43a50.48,50.48,0,0,0-34.46-18C1349.12,1176.9,1347.52,1176.83,1345.93,1176.83Z"/><circle class="cls-14" cx="1368.58" cy="1337.85" r="57.66" transform="matrix(0.05, -1, 1, 0.05, -40.7, 2632.76)"/><g class="cls-1"><path class="cls-2" d="M1536.23,1358.73a67.17,67.17,0,0,1-20.59,72.73L1235,1664.94a67.06,67.06,0,0,1-94.15-8.65l-47.42-57c92.54-5.11,240.63-77.89,271.41-203.91a57.35,57.35,0,0,1-40.55-20.66,56.48,56.48,0,0,1-10.31-18.55,57.56,57.56,0,0,0,58-1.25,94.82,94.82,0,0,0-12.89-56.6c-34.47-58.35-12.14-144.15,29.45-200.75a83.51,83.51,0,0,0,4.4-91.91c-15.72-26.62-37.34-57.93-63.71-83l-228.78-98.86s83,0,186.86,13.73c0,0,0,0,0,0,122.48,79.76,291.83,198.87,422.79,324.84C1701.25,1256.75,1638.74,1342.46,1536.23,1358.73Z"/></g><path class="cls-2" d="M1368.71,1407.52q-3.24,0-6.49-.3a69.38,69.38,0,1,1,6.49.3Zm-.21-115.33a45.67,45.67,0,1,0,35.18,16.46h0a45.35,45.35,0,0,0-30.93-16.26C1371.33,1292.26,1369.91,1292.19,1368.5,1292.19Z"/><path class="cls-2" d="M1349.15,1582a12,12,0,0,1-9.23-4.32l-86.59-104.08-85.31,4.16a11.93,11.93,0,0,1-9.8-4.32l-86.76-104.27a12,12,0,0,1,18.45-15.35l82.92,99.67,85.31-4.15a11.91,11.91,0,0,1,9.81,4.31l90.42,108.68a12,12,0,0,1-9.22,19.67Z"/><path class="cls-8" d="M1527.39,1350.25c-201-11.4-147.61-219-61.77-287.56l-2.31-1.6L1346.91,981l-1.56-1.2L1156.47,833.37s388.84,0,523.84,142.16C1810.51,1112.61,1731.74,1361.81,1527.39,1350.25Z"/><g class="cls-1"><path class="cls-2" d="M1519.62,996.41c-15,34.48-37.84,54-56.31,64.68L1346.91,981l-1.56-1.2c27.84,5.2,66.6,12.84,90.92,19.4C1479.66,1010.93,1518,997,1519.62,996.41Z"/></g><g class="cls-1"><path class="cls-2" d="M1527.39,1350.25c-78.92-4.48-118.61-39.2-132.48-83.88,21.75,23.32,56.67,39.32,108.52,42.24,174.84,9.88,257.76-171.08,196.52-309.4C1801.43,1139.33,1720.47,1361.17,1527.39,1350.25Z"/></g><path class="cls-2" d="M1156.45,828.05c15.52-3.86,31-5.49,46.5-6.55a427.94,427.94,0,0,1,46.42-.23,808.24,808.24,0,0,1,92.32,9.13c61.15,9.49,122.29,20.93,181.92,40,29.77,9.55,59.19,21,87.39,35.66s55.28,32.68,78.49,56.1c3.06,2.76,5.55,6,8.32,9s5.53,6,8,9.32c4.91,6.55,10,12.93,14.27,20,9.11,13.62,16.31,28.42,22.43,43.57s10.22,31.08,13.42,47.09a275.49,275.49,0,0,1,4,48.74,252.27,252.27,0,0,1-20.08,95.34c-12.87,30.1-32.16,57.86-57.16,79.7a196.33,196.33,0,0,1-41,28,97.86,97.86,0,0,1-11.22,5.38l-11.48,4.81c-7.9,2.44-15.66,5.5-23.78,7.08-16,4.25-32.51,5.58-48.85,6.39-16.39-.11-32.52-.7-48.69-3.65-8.11-1.05-16.15-3.34-24.2-5.29-8-2.65-16-5.07-23.69-8.85-15.47-7-30.26-16.86-42.34-29.76a122.27,122.27,0,0,1-26.72-45,154,154,0,0,1-7.62-50.41c.41-33.62,9.33-65.77,23.16-95.22,14.12-29.34,33.11-56.63,59.43-78.3l.91,25.81c-19.89-13.45-40.59-25.74-59.8-40.19a351.17,351.17,0,0,1-28-22.85c-4.45-4.12-8.82-8.37-13-13a132.74,132.74,0,0,1-11.89-14.5,5.7,5.7,0,0,1,6-8.79,133.92,133.92,0,0,1,17.79,5.91c5.77,2.22,11.29,4.77,16.73,7.46a352,352,0,0,1,31.36,18c20.37,12.77,39.25,27.7,58.93,41.46l.07,0a16.11,16.11,0,0,1,4,22.43,17.08,17.08,0,0,1-3.12,3.33c-21.28,17.07-38.25,41.2-50.56,66.87-12.18,25.82-19.79,54.09-20.08,81.77s7.71,54.42,25.67,73.23a101.66,101.66,0,0,0,32.31,22.56c6,3,12.74,5,19.26,7.21,6.84,1.58,13.52,3.58,20.62,4.47,14,2.59,28.55,3.09,42.72,3.22,14.17-.76,28.39-1.84,42-5.5,6.94-1.3,13.46-4,20.18-6l9.68-4.07a76.79,76.79,0,0,0,9.46-4.54,164.14,164.14,0,0,0,34.58-23.61c21.14-18.44,37.71-42.17,48.87-68.26a220.36,220.36,0,0,0,17.49-83.17,243.52,243.52,0,0,0-3.46-42.63c-2.84-14-6.35-27.85-11.71-41.06s-11.57-26.06-19.51-37.89c-3.65-6.12-8.17-11.65-12.41-17.36-2.1-2.88-4.65-5.39-6.94-8.11s-4.56-5.5-7.22-7.85c-19.93-20.11-44.32-36.49-70.36-50.08s-53.94-24.45-82.42-33.58c-57.06-18.12-116.57-30.12-176.64-37.1l-90.27-10c-30.14-3.23-60.26-7.25-90.47-15.08h0a5.5,5.5,0,0,1,0-10.66Z"/><path class="cls-2" d="M1456.9,1049.27c.95-1.22,2.76-2.87,4.23-4.34l4.77-4.5c3.18-3,6.41-6,9.66-9,6.4-6.06,13-12.05,19-18.66a160.62,160.62,0,0,0,16.74-21.41c5.44-7.65,9.29-16.16,13.8-25.29l.09-.18a2.36,2.36,0,0,1,4.45.7,90.61,90.61,0,0,1-.56,31.65,114.36,114.36,0,0,1-10.56,30.6,119.43,119.43,0,0,1-18.12,26.91,97.86,97.86,0,0,1-11.81,11.12,80,80,0,0,1-6.6,4.85,70.43,70.43,0,0,1-7.64,4.36,15.92,15.92,0,0,1-19.61-24.08Z"/><path class="cls-8" d="M1256.09,494.87h0a12.14,12.14,0,0,1-17.14-1.1L1008.07,231.09a12.15,12.15,0,0,1,1.11-17.14h0a127.37,127.37,0,0,1,179.76,11.59l78.73,89.57A127.38,127.38,0,0,1,1256.09,494.87Z"/><path class="cls-2" d="M1248.09,500.77l-1,0a14.94,14.94,0,0,1-10.31-5.07L1005.92,233a15,15,0,0,1,1.36-21.19,130.25,130.25,0,0,1,183.82,11.84l78.73,89.57A130.26,130.26,0,0,1,1258,497,14.89,14.89,0,0,1,1248.09,500.77Zm-155-315.65a123.61,123.61,0,0,0-82,31,9.27,9.27,0,0,0-.84,13.08l230.88,262.68a9.28,9.28,0,0,0,13.08.85h0A124.5,124.5,0,0,0,1265.51,317l-78.73-89.57a123.63,123.63,0,0,0-85.51-42.05Q1097.18,185.12,1093.09,185.12Z"/><g class="cls-1"><path class="cls-2" d="M1230.75,273.11l36.94,42A127.45,127.45,0,0,1,1256.1,494.9a12.18,12.18,0,0,1-17.16-1.13L1177.54,424a12.18,12.18,0,0,0,13.06-1.88l6.21-5.49A127.28,127.28,0,0,0,1230.75,273.11Z"/></g><path class="cls-2" d="M1248.11,513.9c-.62,0-1.23,0-1.85-.06a28,28,0,0,1-19.33-9.5L996.05,241.65a28.15,28.15,0,0,1,2.57-39.72A143.38,143.38,0,0,1,1201,215l78.73,89.57a143.39,143.39,0,0,1-13,202.34A27.9,27.9,0,0,1,1248.11,513.9ZM1022.68,223.47l225.7,256.79a111.39,111.39,0,0,0,7.27-154.59l-78.73-89.57a111.38,111.38,0,0,0-154.24-12.63Z"/><path class="cls-8" d="M142.13,976h0a12.14,12.14,0,0,1,17.13,1.11l230.88,262.68a12.14,12.14,0,0,1-1.1,17.13h0a127.38,127.38,0,0,1-179.77-11.58l-78.73-89.58A127.37,127.37,0,0,1,142.13,976Z"/><path class="cls-2" d="M305,1291.46a129.93,129.93,0,0,1-97.9-44.2l-78.73-89.57a130.4,130.4,0,0,1,11.84-183.82,15,15,0,0,1,21.19,1.36L392.3,1237.91a15,15,0,0,1-1.37,21.19A129.67,129.67,0,0,1,305,1291.46ZM150.13,975.87a9.23,9.23,0,0,0-6.1,2.31h0a124.65,124.65,0,0,0-11.33,175.71l78.73,89.57a124.64,124.64,0,0,0,175.71,11.33,9.27,9.27,0,0,0,.84-13.08L157.1,979a9.24,9.24,0,0,0-6.36-3.14Zm-8,.16h0Z"/><g class="cls-1"><path class="cls-2" d="M326.11,1166.92l64,72.88A12.16,12.16,0,0,1,389,1257a127.33,127.33,0,0,1-179.73-11.58l-33.18-37.74a127.42,127.42,0,0,0,136.55-20.42l9.58-8.42A12.29,12.29,0,0,0,326.11,1166.92Z"/></g><path class="cls-2" d="M305,1304.58a143,143,0,0,1-107.77-48.66l-78.73-89.57C66.34,1107,72.19,1016.2,131.57,964h0a28.12,28.12,0,0,1,39.71,2.56l230.88,262.68A28.15,28.15,0,0,1,399.6,1269,142.8,142.8,0,0,1,305,1304.58ZM149.84,990.64a111.53,111.53,0,0,0-7.28,154.59l78.73,89.57a111.51,111.51,0,0,0,154.24,12.62ZM142.13,976h0Z"/><circle class="cls-8" cx="699.16" cy="735.4" r="595.95"/><path class="cls-2" d="M699.87,1334c-180.89,0-359.74-81.4-477.4-236.17C22.62,835,73.88,458.55,336.73,258.7S976,110.12,1175.86,373c96.81,127.33,138.24,284.74,116.65,443.23s-103.59,299.09-230.92,395.9A595.85,595.85,0,0,1,699.87,1334ZM698.46,142.55A590,590,0,0,0,340.21,263.28C79.88,461.21,29.12,834,227,1094.36s570.74,311.09,831.07,113.16c126.11-95.88,207.33-235.13,228.71-392.09s-19.66-312.88-115.54-439h0C1054.75,223.18,877.59,142.55,698.46,142.55Z"/><g class="cls-1"><path class="cls-2" d="M1119.09,312.5a591.56,591.56,0,0,1,54.49,62.21c199.17,262,148.26,635.9-113.72,835.12S424,1358.09,224.74,1096.11c-5.74-7.53-11.3-15.21-16.58-22.91,207.56,206.62,540.9,233.77,780.63,51.51C1243.24,931.22,1298.56,573,1119.09,312.5Z"/></g><path class="cls-2" d="M699.88,1347.12c-184.84,0-367.61-83.18-487.86-241.34C7.79,837.16,60.18,452.48,328.79,248.26S982.08,96.42,1186.31,365c98.93,130.13,141.27,291,119.21,453s-105.86,305.64-236,404.58A608.94,608.94,0,0,1,699.88,1347.12Zm-1.4-1191.45A577,577,0,0,0,348.15,273.73C93.59,467.28,44,831.84,237.49,1086.41s558.12,304.22,812.68,110.66c123.32-93.75,202.74-229.92,223.64-383.42s-19.22-305.94-113-429.26C1046.88,234.52,873.64,155.67,698.48,155.67Z"/><path class="cls-2" d="M1181.32,388.05c72,91.76,109,200.31,113.36,310.75,3.26,82.8-81.19,298.43-273.69,452.24-178.48,142.61-417.2,175.06-496.84,152.17-106.23-30.52-202.84-92.34-274.82-184.1C58.86,876.29,188.52,612,445.9,410.1S990.85,145.23,1181.32,388.05Z"/><path class="cls-2" d="M585.71,1325.9c-27,0-49.55-2.59-66-7.31-113.38-32.58-211.24-98.15-283-189.61C143.2,1009.73,118.89,880.25,164.5,744.17,204.27,625.52,298.16,505.65,436,397.51S712.67,226.73,837.37,216.36c143-11.87,263,42.56,356.54,161.81h0c71.74,91.47,112.12,202.12,116.76,320,3.21,81.77-75.52,302.23-279.69,465.37C882.22,1282.4,696.39,1325.9,585.71,1325.9ZM875.93,246.32c-169.41,0-335,109.56-420.16,176.37C322.84,527,232.62,641.64,194.85,754.34c-42,125.24-19.41,244.64,67.07,354.89,67.57,86.14,159.77,147.9,266.65,178.61,75.86,21.8,308.42-10.27,482.44-149.3,192.85-154.1,270.58-365.35,267.68-439.11-4.37-111.11-42.4-215.37-110-301.51h0C1080.82,285.86,977.68,246.32,875.93,246.32Z"/><g class="cls-15"><ellipse class="cls-8" cx="1003.99" cy="473.86" rx="76.42" ry="105.47" transform="translate(-105.09 523.73) rotate(-27.84)"/></g><g class="cls-15"><ellipse class="cls-8" cx="1059.27" cy="696.02" rx="41.54" ry="48.41" transform="matrix(0.94, -0.34, 0.34, 0.94, -173.65, 402.07)"/></g><g class="cls-1"><path class="cls-16" d="M913,232.61c99.61,9.68,191.8,57.91,268.31,155.43,72,91.77,109,200.33,113.39,310.75,3.25,82.81-81.22,298.44-273.69,452.27-68,54.33-144.64,92.64-218,118,232.57-194.13,334.77-457.65,330.72-560.34-5.51-140.17-52.53-278-143.88-394.38A603.71,603.71,0,0,0,913,232.61Z"/></g><path class="cls-2" d="M122,900.51c-.25,0-.49,0-.74,0A16,16,0,0,1,106,885c-12.5-185.61,92.84-380.32,289.09-534.27C590,197.92,802.3,139.7,977.81,191a16,16,0,0,1-3.6,31.6c-.48,0-1.07,0-1.55-.07a16.8,16.8,0,0,1-3.07-.58c-165.62-48.74-367.8,7.43-554.71,154C226.93,523.37,126,708.31,138,883.32c0,.36,0,.72,0,1.09s0,.59,0,.83A16,16,0,0,1,122,900.51Zm-.32-16h0Zm852.39-678h0Z"/><g class="cls-15"><path class="cls-8" d="M467.3,1181.47S204.19,1000.92,258.41,804.2s240.26-342,245.26-326.71c0,0-166.58,211.07-119.52,436.73C420.44,1088.24,467.3,1181.47,467.3,1181.47Z"/></g><path class="cls-2" d="M2040.58,1700.07a350.89,350.89,0,0,0,34.75-33.81,246.1,246.1,0,0,0,28-37.36,172.35,172.35,0,0,0,17.6-40.35c4.07-13.72,5.54-27.57,6.14-42l0-.68a16,16,0,0,1,31.85-2.06c3.17,18.32,1.11,37.7-4.94,55.22s-16,33.23-27.33,46.77a200.43,200.43,0,0,1-38.76,34.78c-14.18,9.63-29,17.83-45.12,23.48a2.31,2.31,0,0,1-2.27-3.94Z"/><path class="cls-2" d="M1485.73,2173.91c-5.89,16-14.33,30.72-24.18,44.76a200.65,200.65,0,0,1-35.38,38.21c-13.72,11.15-29.44,21-47.2,26.59-17.61,5.78-37,7.53-55.28,4.08a16.05,16.05,0,0,1,2.55-31.82h.68c14.41-.38,28.27-1.64,42.06-5.49a172.89,172.89,0,0,0,40.62-17,246.31,246.31,0,0,0,37.79-27.37,352,352,0,0,0,34.35-34.21l.08-.1a2.31,2.31,0,0,1,3.91,2.32Z"/><path class="cls-2" d="M1722,1048.67a11.94,11.94,0,0,1-8.45-3.49c-86.43-85.79-202.07-8.44-206.94-5.1a12,12,0,0,1-13.58-19.8c1.36-.92,136.85-92,237.42,7.87a12,12,0,0,1-8.45,20.52Z"/><path class="cls-2" d="M744,1718.85a12,12,0,0,1-10.72-6.6c-46.7-92.71-206.77-200-208.38-201.08a12,12,0,1,1,13.3-20c6.79,4.52,167,111.88,216.51,210.26a12,12,0,0,1-10.71,17.4Z"/><path class="cls-2" d="M1813.41,1663a12,12,0,0,1-11.76-9.7c-1.34-6.86-31.93-169.33,38.53-287.88,73.79-124.12,192.34-66.83,193.52-66.24a12,12,0,0,1-10.71,21.48c-4-2-100-47.69-162.17,57-65.73,110.58-35.92,269.44-35.62,271a12,12,0,0,1-9.48,14.07A12.12,12.12,0,0,1,1813.41,1663Z"/></g></g></svg>