<svg xmlns="http://www.w3.org/2000/svg" viewBox="0 0 359.52 431.38"><defs><style>.cls-1{fill:#390175;}.cls-2{fill:#fefefe;}.cls-3{fill:#baa6ce;}.cls-4{fill:#baa5ce;}.cls-5{fill:#fcf16b;}.cls-6{fill:#fefefd;}.cls-7{fill:#bba5ce;}.cls-8{fill:#f784a1;}.cls-9{fill:#8865ad;}.cls-10{fill:#fb6bcb;}.cls-11{fill:#3ad3fd;}.cls-12{fill:#8964ad;}.cls-13{fill:#fdfdfd;}.cls-14{fill:#b9a5ce;}.cls-15{fill:#b99d6f;}.cls-16{fill:#fcfbfb;}.cls-17{fill:#41cff7;}.cls-18{fill:#baa5cf;}.cls-19{fill:#b35492;}.cls-20{fill:#b9a4cd;}.cls-21{fill:#fbfaf9;}.cls-22{fill:#b9a5cf;}.cls-23{fill:#aee9f8;}.cls-24{fill:#f7b1c9;}.cls-25{fill:#f5bfea;}.cls-26{fill:#eee6f5;}.cls-27{fill:#f7f3bc;}.cls-28{fill:#f7bdea;}.cls-29{fill:#f56cca;}.cls-30{fill:#f76bcb;}.cls-31{fill:#ade3f7;}.cls-32{fill:#f7f3f9;}.cls-33{fill:#efce21;}.cls-34{fill:#f6f1c9;}.cls-35{fill:#c1941b;}.cls-36{fill:#f0ce1c;}.cls-37{fill:#330b41;}.cls-38{fill:#f0b7ef;}.cls-39{fill:#b145ac;}.cls-40{fill:#3d80c6;}.cls-41{fill:#5a4228;}.cls-42{fill:#e7d3f7;}.cls-43{fill:#f1dd8f;}.cls-44{fill:#cab0e4;}.cls-45{fill:#390376;}.cls-46{fill:#3f0a6f;}.cls-47{fill:#f2dcbc;}.cls-48{fill:#460a73;}.cls-49{fill:#430a73;}.cls-50{fill:#410a72;}.cls-51{fill:#f2ebf2;}.cls-52{fill:#ecdcf2;}.cls-53{fill:#b9588c;}.cls-54{fill:#e9809d;}</style></defs><g id="Camada_2" data-name="Camada 2"><g id="Camada_1-2" data-name="Camada 1"><path class="cls-1" d="M107.25,390.48c-5.49,2.36-9.46,6.72-13.86,10.47-4.64,3.95-9.67,7.1-15.8,8.05a21.08,21.08,0,0,1-17.27-4.88C43.44,390,33.73,372,32.62,349.82c-.35-7,2.34-12.69,9-16s12.57-1.83,18.34,2.07c3.47,2.35,6.09,5.62,9.43,8.72A50.36,50.36,0,0,1,82,328.09c-2.9,0-5.81.11-8.71,0-18.28-.79-32-9.19-39.51-25.85-7.63-16.9-4.77-32.84,7.29-47a11.1,11.1,0,0,0,2.61-6.17c1.14-8.23,2.59-16.42,4-24.6.57-3.17.27-4.76-3.72-4.59a80.09,80.09,0,0,1-16.88-1.51A32.21,32.21,0,0,1,3.33,172.32c5-10.45,13-18.44,22.12-25.34a162.66,162.66,0,0,1,15.36-10.24c2.58-1.53,3.71-2.66,3.16-6.06-1-6.56-1.26-13.28.59-19.83,2.53-8.93,6.81-10.48,14.65-5.39.51.33,1,.63,1.95,1.17.57-3,1.07-5.52,1.54-8.07.43-2.34,1.52-4.1,4.1-4.33s4,1.34,4.74,3.58c2,5.89,4,11.78,6.54,17.6a186.36,186.36,0,0,1,4.07-39c9-41.37,36.19-63.82,75.91-72.62,33.66-7.46,66.32-4.54,96.41,13.66C275,29.9,288.37,48.08,294.7,71.29a10.06,10.06,0,0,0,4.56,6.54c13.05,8.39,18.26,28.6,11.92,45.39-3,8-7.88,14.63-16,18.25a4.68,4.68,0,0,0-2.84,3.15A88.69,88.69,0,0,1,270,181.39c-.31.3-.35.87-.73,1.86,8.53-1.88,15.92-5.49,23.22-9.27,8-4.14,15.32-9.37,22.78-14.38s15.49-8.67,24.76-7.69c13.35,1.43,21.31,13.65,19.07,28.83-2.64,17.89-12.7,31.51-25.16,43.75a90.9,90.9,0,0,1-16,12.78c-2.24,1.38-2.72,2.95-2.33,5.35.74,4.6,1.4,9.21,1.83,13.85.18,1.89,1.24,3,2.35,4.19,17.08,19,16,44.78-2.56,62.57-1.35,1.3-2.52,2.52-2.85,4.5-3.83,23.31-20.1,32.65-41.19,36.47-2,.36-3.8.34-5.07,2.43-8.95,14.62-22.93,22.29-38.58,27.52a181.1,181.1,0,0,1-33.5,7.75c-8.37,1.12-14.11,5.36-18.31,12.29-1.38,2.27-2.69,4.6-4.08,6.87-5.23,8.53-12.58,11.71-22.48,9.76C132.09,427.05,112.87,409.48,107.25,390.48Z"/><path class="cls-2" d="M101.79,132.64c.27,3.38-2.1,8.18,4.56,8.12.66,0,1.36,1.76,2,2.75,5.35,8.55,7.3,18.13,8.15,28a266,266,0,0,1,.57,32.93c-.4,11-.4,22,1.69,32.83,1.37,7.06,3.69,13.71,9,19.47.39-4.12,1.52-3.84,4-1.62,15.86,14.33,36.7,12.94,50.55-3.4a6.57,6.57,0,0,1,5.92-2.6c34.27,1.1,68.55,2,102.82,3.22,20.1.74,36.69,19.22,35.48,38.91-4.07,14.75-15.22,21.59-28.82,25.45a38.77,38.77,0,0,1-17.83.83,16.36,16.36,0,0,0-3.48-.29c-16.17.52-32.28-1-48.43-1.15-25.46-.22-50.89-1.67-76.35-2.16-21.12-.41-42.23-1.79-63.37-1.77a128.42,128.42,0,0,1-20.9-1.42C53.4,308.4,42,301.81,36.17,287.92c-1.37-3.27-1.09-6.46-.64-9.75.73-6.34,3.39-11.81,7.66-17.64.89,4.77,1.62,8.7,3.42,12.33,1.52-.59.65-1.71.92-2.49-2.15-10.43.93-18.72,9.58-25.21C64,240,70.31,234,77.3,229c7.85-5.71,13.12-13,15.21-22.59a34.06,34.06,0,0,1,2.15-6.05c.2-1.39,1.77-2.38,1-4.86-10.91,8.69-22.06,16.31-36.89,18.05a36.07,36.07,0,0,0,5.12-22.22,27.76,27.76,0,0,0-26.65-25c-8.54-.27-16.88,1.17-25.71,2.81,1.7-4.28,4.74-7.05,7.55-9.88,10.21-10.27,22.34-17.76,35.33-24,1.7-.81,2.61-.71,4.23.61,5.69,4.63,17.57,3.63,23-1.56a1.67,1.67,0,0,1,1.31-.39c4,2,8.7,1,12.88,2.58,1.64.61,1.91-1.07,2.49-2.3.82-1.76.26-4.43,3-5.05C102.6,130.18,102.11,131.42,101.79,132.64Z"/><path class="cls-2" d="M154.88,416.09c-6.26-11.75-14.95-20.77-28.14-24.49-6.67-1.88-9.52-.78-12.34,4.46-1.8-4.54-3-8.87-.19-12.89s7.18-3.77,11.37-3.34a41.22,41.22,0,0,1,9.26,1.78c2.81,1,3.47.09,3.75-2.47a45,45,0,0,1,3.89-13.33c5.3-11.9,14.62-18.08,27.38-19.52,7.74-.87,15.46,0,23.3.37-.23-1.91-1.69-1.82-2.49-2.5.6-2.93,3.17-2.92,5.1-2.75,15.54,1.33,31.16.13,46.69,1.39,7.3.59,14.58.1,21.85.52,2.47.14,5.51-.5,6.45,3.05-2.1,9.49-5.59,18.26-13,25-13.33,9.22-28.78,10.52-44.23,11.51-8.6.54-17.25-.17-25.88,1a24.06,24.06,0,0,0-17.36,10.42c-3.66,5.22-6,11.11-8.86,16.71C160.14,413.49,159.29,417.3,154.88,416.09Z"/><path class="cls-2" d="M111.56,32.32c14.59-13.61,32.33-20.81,51.54-24.43,30-5.64,59-2.93,86,12.29,19,10.71,32,26.64,39.16,47.32,2.19,6.37,2.06,6.52-4.86,6.37-1.66,0-3.33,0-5-.17-10.73-1-20.62.4-27.91,10.5-3.6-9.72-7.85-18.09-13.69-25.57-16.59-21.29-39.29-31-65.3-34.27-20.14-2.52-39.4,1.05-58,9C112.37,34.1,111.59,34,111.56,32.32Z"/><path class="cls-3" d="M35.53,278.17c.72,12.82,10.54,24.17,24.77,29.2,8.07,2.85,16.45,2.25,24.67,2.62,19.6.87,39.24.9,58.86,1.43,21.27.56,42.54,1.31,63.82,1.95,22.93.69,45.87,1.12,68.79,2.13,8.52.37,16.89,1.07,25.13-1.77,11.53-4,19.07-12.29,24.92-22.51,1,19.59-16.44,37.94-37,38-18.3,0-36.61-.8-54.91-1.32q-47.43-1.36-94.85-2.83c-22.29-.67-44.59-1.27-66.88-2s-39.15-19-38.17-41.52A17.46,17.46,0,0,1,35.53,278.17Z"/><path class="cls-2" d="M268.44,214.13a187.59,187.59,0,0,1,2.19-22.32c.34-2.38,1.25-3.75,3.74-4.54,15-4.76,28.46-12.67,41.23-21.77,5.6-4,11.53-7.24,18.43-8.34,10.63-1.69,17.59,3.29,19.67,14,.53,8.92-2.51,16.52-8.38,23.16-7.31,8.27-16.59,13.8-26.13,18.94-14.82,8-30.4,14.31-45.69,21.28-4.71,2.14-5.46,1.62-5.37-3.51C268.22,225.41,267.67,219.75,268.44,214.13Z"/><path class="cls-2" d="M69.84,386.16c-2.23-13.49-7.22-25.55-18.47-34.06-3.91-3-8.17-6.21-13.58-1.86-.17-4.76.86-8.6,4.79-11.1,4.17-2.66,8.41-2.53,12.69-.09s7.54,6.41,10.91,10.06,5.27,3.4,7.31-1a39.25,39.25,0,0,1,4.32-7.79c2.37-1.84,5.15-2,8-2.09,11-.5,21.84,1.14,32.76.94,11.78-.21,23.5.85,35.25,1.18,2.13.06,4.85-.38,5.68,2.72-9.36,3.3-15.83,9.89-20.75,18.24a14.56,14.56,0,0,1-7.32,4.89c-5,1.66-10.1,3.34-15.41,3.94-9.08,1-16.75,5-23.52,11a69.41,69.41,0,0,1-10,7.35,28.29,28.29,0,0,1-4.91,2.41C71.75,393,70.48,392.24,69.84,386.16Z"/><path class="cls-4" d="M252.9,135.8c8.75,8.84,19.24,7.41,29.3,7.38,4.56,0,5.27,1,3.53,5.21-11.81,28.69-32.77,45.74-63.48,50.75-9.21,1.51-18.48,2.31-27.77,3.09-3.17.26-4.82-.64-5.76-3.78-.78-2.65-2.33-5.07-3.82-8.16C219.43,187.4,245.4,173.78,252.9,135.8Z"/><path class="cls-3" d="M159.51,343.07c-6.42-2-13.14-1.27-19.62-1.38-20.7-.36-41.37-2-62.08-1.37,5.48-8.11,13.57-11.2,22.82-10.63,9,.56,18,.33,26.94.41,47.09.44,94.14,2.49,141.21,3.82,3.23.09,4.2,1.37,3.7,4.22s-1.14,5.49-1.72,8.23c-1.16-1.3-2.73-1-4.2-1-16.1-.39-32.21-.73-48.31-1.17-7.63-.2-15.25-.61-22.88-.84-1.58-.05-3.35-.63-4.7.84C180.4,340.55,170,339.66,159.51,343.07Z"/><path class="cls-5" d="M130.45,183.3c1.21,5.31,0,10.63.06,15.94a5.48,5.48,0,0,0-.71,1.22,144.48,144.48,0,0,0,.14,18.26,1.24,1.24,0,0,1,.54.84c2.1,15.2,14.83,24.54,28.51,20.89,2-.54,4.78-.92,4.11-3.81s-3.15-1.66-5-1.2c-4.11,1-7.67.11-10.23-3.23-3.06-4-2.61-8.3-.25-12.53,7.36-7.92,17.17-7.67,26.12.31,3.05,2.72,4.63,6.39,7.26,9.33,2.16,5,2.74,10.05-.35,15-11.82,12.38-30.58,14.9-44.45,1.26-6.36-6.25-11.6-13.28-13.42-22.32-1-14-.35-28-.31-41.94-.19-4.57,2.6-3.07,4.75-2.16C129,179.86,129.51,181.8,130.45,183.3Z"/><path class="cls-6" d="M238.74,211.4a224.85,224.85,0,0,0-1.06,30.37c.08,2.91-.86,3.61-3.64,3.49q-21.67-.94-43.36-1.54c-2.72-.07-3.71-.66-3.18-3.68.46-2.55.76-5.68-.31-7.85-2.84-5.79-.91-10.36,2.41-14.92,4.43-3,9.65-2.22,14.48-2.6a186.48,186.48,0,0,0,28-4.5C234.29,209.65,237.2,207.49,238.74,211.4Z"/><path class="cls-7" d="M268.44,214.13c0,5.81,0,11.62,0,17.43,0,1.6-.4,3.8,2.5,2.42,21.47-10.16,43.94-18.32,63.61-32,10.77-7.52,17.45-17.59,19.12-30.76,1.94,8.77-.45,17-4.46,24.45C335.06,222,313.55,239.3,284,245.94c-4.72,1.06-10.29,2-14.23,0-4.89-2.43-1.72-8.6-2.06-13C267.26,226.73,267,220.35,268.44,214.13Z"/><path class="cls-8" d="M53.79,179.33a16.61,16.61,0,0,1,5,9.87c1.93,14.68-6.92,24.05-21.53,22.78-1.65-.15-3.31-.26-4.53-1.61-.45-2.63,1.85-2.33,3.2-2.74a16.5,16.5,0,0,0,7.48-4.48c-3.45,2.32-6.8,3.66-10.5,3.55-1.85,0-2.33.55-1.94,2.22-1.55,2.24-3.76,1.7-5.87,1.35-6.56-1.08-11.54-4.69-15.48-9.9-4.82-6.85-6.09-14.19-3-22.11a11,11,0,0,1,5.19-2.59,141.15,141.15,0,0,1,21.9-3A28.35,28.35,0,0,1,53.79,179.33Z"/><path class="cls-4" d="M154.88,416.09c2.74-.16,3.33-2.61,4.31-4.37a96.33,96.33,0,0,0,4.65-9.92c6-14.51,17-20.92,32.55-20.44,15,.46,29.93-.12,44.46-4.28,5.71-1.63,11.27-3.8,16.9-5.72-5.57,7.48-13.62,11.43-21.86,15-13,5.62-26.88,8.53-40.84,10.6-9.45,1.4-16.29,6.13-21.19,14.06-1.92,3.11-3.75,6.27-5.69,9.36a10.51,10.51,0,0,1-5.59,4.74c-3.17,1-6.57,2.76-6-3.35C156.7,419.92,155.47,418,154.88,416.09Z"/><path class="cls-2" d="M265.4,103.15a28.82,28.82,0,0,1,10.23-19.78c7.22-6.08,16.6-5.84,23.47.67,6.61,6.27,9.54,14.15,9.34,23.23-3,9.29-10.4,12.66-19.08,13.51-9.41.93-17.44-2.26-22.81-10.45A8.25,8.25,0,0,1,265.4,103.15Z"/><path class="cls-9" d="M118.07,64.23c-5.07.33-6.84-1.77-6.49-5.69.45-5,3.42-8.7,7.2-11.49,12.86-9.49,27.33-11.51,42.62-8.13a10.22,10.22,0,0,1,8.06,12c-.8,3.9-3.3,6.45-7.22,6.36-14.48-.3-28.27,3.44-42.17,6.66A14.36,14.36,0,0,1,118.07,64.23Z"/><path class="cls-3" d="M94.66,200.31c-.18,11.57-5,20.84-14,28-8.69,7-17.54,13.7-25.78,21.22-5.23,4.78-8.71,9.95-7.15,17.41a13.18,13.18,0,0,1-.21,3.46c-2.15-9.17-.23-18.14,1.45-27.07,1.29-6.84,3.43-13.52,4.07-20.48.25-2.6,1.36-3.48,4-3.8,9.11-1.11,17.89-3.47,26-8A39.88,39.88,0,0,0,94.66,200.31Z"/><path class="cls-4" d="M69.84,386.16c.71,5.24,3.72,4.74,7.45,3.18a47.48,47.48,0,0,0,13.23-8.74c7.36-6.61,15.65-11,25.58-12.18a71.59,71.59,0,0,0,22.66-7.11c-1.53,4.38-2,9.63-4.87,12.91-3,3.49-8.18-.5-12.5.28-5.68,1-10.68,2.6-12.94,8.61a3.29,3.29,0,0,1-1.54,1.82C99.26,388,94,394.19,87.69,399c-8.1,6.2-14.87,6.71-23.32,1.74C72.28,398.06,69,391.4,69.84,386.16Z"/><path class="cls-10" d="M183.67,199.51c3.38,7,2.76,13.66-1.55,20.51-4.46-5.24-9.14-9.62-15.38-12-3.65-1.4-7.45-2.34-11.19-1.18s-5.32-.48-6.64-3.27c-2.11-4.46-2.46-8.92.27-13.29,10.12-10.85,24.31-4.2,31.82,5.72C181.88,197.18,182.19,198.79,183.67,199.51Z"/><path class="cls-4" d="M265.4,103.15c.5,9.72,14.24,18.91,27.37,15.68,6.9-1.7,11.5-6.28,15.67-11.56a31.91,31.91,0,0,1-7.4,23.6c-8.21,10-21.08,10-29.08-.14A32.75,32.75,0,0,1,265.4,103.15Z"/><path class="cls-11" d="M183.12,176.42c-.12.65-.21,1.31-.36,2-1.52,6.76-2.13,7.05-7.71,3.55a29.64,29.64,0,0,0-7.7-3.35c-1.94-.56-4.36-.28-5.09-3.1a1.94,1.94,0,0,0-2.57-.92c-5.08,2.13-8.35-.44-10.77-4.38-2.91-4.76-3.29-9.65.57-14.25a12.41,12.41,0,0,1,13.36-2.76C174,157.07,181.54,164.16,183.12,176.42Z"/><path class="cls-12" d="M218.28,75.18c-.72,2.54,0,6.16-3.52,7.46s-6.6-.56-8.68-3.32a67,67,0,0,0-15.39-14.77c-3.86-2.69-4-6.73-2.18-10.74s5.9-5.9,10.33-4.82C210.21,51.76,218.44,62.74,218.28,75.18Z"/><path class="cls-13" d="M264.7,196.38l-1.26,10.86c-.51,7.09-1.66,14.12-1.41,21.27.12,3.3-.16,6.69-3.06,9.1a10,10,0,0,1-9.84,1.78,7.73,7.73,0,0,1-5.81-7.32,62.55,62.55,0,0,1,.15-13.88c.61-3.34-.63-6.84.88-10.11,5.46-5,12.55-7.74,18.16-12.6C263.16,194.92,264.75,194.17,264.7,196.38Z"/><path class="cls-4" d="M238.74,211.4c-1.73-1.77-3.52-.21-5.05.21-14.44,4-29.19,5.31-44.09,5.66.62-3.22.2-7.6,2.15-9.33s6.29-1.07,9.59-1.25a161.5,161.5,0,0,0,35.88-5.95c2.34-.68,3.5-.69,2.78,2.33C239.35,205.79,239.14,208.62,238.74,211.4Z"/><path class="cls-14" d="M272.6,358.58c2.67-6.69,3.7-13.65,5.18-20.59,7.43,5.73,17.33,4.21,24.46-3.59,3-3.28,3-3.28,5.7-4.46C307.48,346.16,289.84,356.92,272.6,358.58Z"/><path class="cls-15" d="M122.79,223.23c3.25,5.18,5.77,10.76,9.52,15.68,11.89,15.58,27.29,18.42,44.08,7.9,1.4-.88,2.85-1.68,4.27-2.52-5.34,12.7-25.27,20.12-37.4,13C130.64,249.79,122.05,239.11,122.79,223.23Z"/><path class="cls-16" d="M248.51,101.22c1.42-8,5-14.77,11.74-19.5,3.47-2.43,7.4-3.48,12.57-3-9.67,8.72-13,19.52-13.35,31.51-2.23,3-5.23,3.23-8.38,2s-3.1-4-3-6.67C248.18,104.13,247.81,102.62,248.51,101.22Z"/><path class="cls-17" d="M133.67,146.17c.91,4.84,1.85,9.69,2.72,14.54,1.48,8.16,3.63,16,10.16,21.78,1.17,1,.77,1.79-.07,2.78-1.07,1.24-2,2.64-2.92,4-3.35.83-3.56-2.29-5-3.93-2-9.87-2.08-20.09-5.55-29.76C128.9,144,121.88,135.37,110.17,131c-1.87-.7-3.46-1.43-2.34-3.87.56-3.13,2.78-2.81,5-2.28,8.66,2.12,14.32,7.87,18.29,15.51C132.05,142.21,132.72,144.26,133.67,146.17Z"/><path class="cls-18" d="M248.51,101.22a5.4,5.4,0,0,1,.14,1c-.21,9.09,2.15,10.85,10.82,8.07.87,10.35,3.87,19.84,12,27.43C255.21,139.49,244.31,118.29,248.51,101.22Z"/><path class="cls-19" d="M9.57,200.37c5,3.68,9.93,7.61,16.4,8.53,1.61.22,3.23.9,4.64-.52,1-.7,1.87-.82,2.06.77,12.89,5,26-3.8,26-17.47,0-.82.07-1.65.1-2.48,2.42,9-.57,16.64-5.66,23.81-1.21,1.71-3.24,1.76-5,1.84-8.86.39-17.69-.2-26.1-3.07C16.4,209.86,11.73,206.33,9.57,200.37Z"/><path class="cls-20" d="M243.47,218.19c.09,3.65.12,7.3.3,10.95.28,5.68,3.41,9.1,8.37,9.29,5.14.2,8.82-3.15,9.17-9,.37-6.13.31-12.29,1.21-18.4.19-1.29,0-2.68.92-3.79-.24,11.95-.52,23.9-.67,35.85,0,2.31-.69,3.3-3.13,3.18-4.65-.24-9.31-.26-14-.4-1.57,0-3.07-.26-3-2.4C243,235.05,241.78,226.57,243.47,218.19Z"/><path class="cls-21" d="M48.32,122.46c.24-3.53,0-6.72,1-9.75.71-2,.69-5.54,3.68-4.83s6.67,2.77,6.65,6.46A41.22,41.22,0,0,1,57.4,127.5c-1,2.86-4.82,3-7.56,3.93-.79.26-1-1.1-1-1.91C48.62,127,48.46,124.55,48.32,122.46Z"/><path class="cls-22" d="M264.7,196.38c-2.8-.41-3.56,2.36-5.37,3.5-4.84,3-9.5,6.35-15,8.2.15-1.15.35-2.3.43-3.46.32-4.6,2-7.73,6.78-9.72s8.94-5.53,13.76-8.63C266.39,189.87,265.57,193.12,264.7,196.38Z"/><path class="cls-23" d="M183.12,176.42c-2.39-6.65-5.82-12.6-11.5-17-6.74-5.26-14-7.22-22.14-3.46,4.13-5.48,8.71-7.15,15.24-5.54C175.45,153,184.1,165.27,183.12,176.42Z"/><path class="cls-24" d="M53.79,179.33c-8.35-5.2-17.56-6-27-4.77-6.79.89-13.49,2.44-20.23,3.7,0-2.45,1.53-3.42,3.73-3.92,8.77-2,17.59-3.48,26.63-3.2C43.76,171.35,49.49,173.89,53.79,179.33Z"/><path class="cls-25" d="M116.52,147.27,110,136.64c5.1,1.54,8.56,4.67,11.61,8.25,5.94,7,8.09,15.52,9.79,24.24.12.62.28,1.43-.8,1.1-.38-.11-.61-.71-.9-1.09C125.29,161.84,123,153.3,116.52,147.27Z"/><path class="cls-26" d="M101.79,132.64c-.33-1.1-.67-2.2-1-3.31-2-1.36-1.51-3.48-1.64-5.41s.15-3.57-.61-5.36c-1.5-3.53-3-4-5.75-1.34-3.22,3.19-5.2,7.2-6.82,11.4-.81,2.09-1,4.64-3.49,5.71h-.41l-.41,0c1-9.79,5.71-17.76,12.55-24.58,2.65-2.63,4.62-1.82,5.83,1.56C102.54,118.25,103.48,125.34,101.79,132.64Z"/><path class="cls-27" d="M181,229.32c-1.62,0-2-1.28-2.74-2.42-4.8-7.43-12.12-10.47-20.54-11.57-4.4-.57-6.91,2.27-9.51,5,0,0-.31-.1-.41-.21a1.27,1.27,0,0,1-.19-.46c3.39-7.34,8.48-9.86,15.91-7.32A27.73,27.73,0,0,1,181,229.32Z"/><path class="cls-28" d="M183.67,199.51c-1.56-.45-1.51-.49-2.23-1.41-5.4-6.94-12-11.7-21.24-11.81-4.26,0-7.39,2.55-11,4,5.17-7.46,11.49-9.46,19.66-5.89A27.22,27.22,0,0,1,183.67,199.51Z"/><path class="cls-29" d="M116.52,147.27c3.43.69,5,3.47,6.69,6a42.91,42.91,0,0,1,6.44,15.83c-8.91-4.34-11.23-12.73-13.15-21.38A2.05,2.05,0,0,1,116.52,147.27Z"/><path class="cls-30" d="M144.74,213.37l-4.26,9.79c-3.69.49-3.18-3.35-5-4.82-1.58-5.66-1-11.35-.17-17C138,205.67,141.57,209.38,144.74,213.37Z"/><path class="cls-31" d="M133.67,146.17c-2.93-3.11-3.91-7.43-6.84-10.6-4.36-4.71-9.23-8.32-15.68-9.68-1.72-.37-2.42.27-3.32,1.22-1.41-4.83,1-5.43,4.85-4.34C124.59,126.15,130.84,134.63,133.67,146.17Z"/><path class="cls-32" d="M297.58,247.87l12.61-5.64c1.77,3.62,1.21,7.48,2.1,11.67A83.11,83.11,0,0,0,297.58,247.87Z"/><path class="cls-33" d="M62.39,125.21c2.09-4.49.25-9.23,4.27-12,1.18-.82,2.52-3.44,3.82-1.81,1.44,1.79,3.5,4.42,1.3,7.16S66.81,123.29,62.39,125.21Z"/><path class="cls-34" d="M130.45,183.3c-2-.17-2.61-2.18-4-3.13-1.79-1.18-3.26-1.5-3.93,1.13l-.64-.25c-1.43-3.49-.49-7.1-.55-10.65,2.31-1.54,3,.89,4,1.88A16.12,16.12,0,0,1,130.45,183.3Z"/><path class="cls-35" d="M74.84,123.43c2,3,3.55,6.24.48,9.24-2,2-11.56,1.26-13.12-.56a1.31,1.31,0,0,1,.12-1.78C67.65,130.12,72,128.11,74.84,123.43Z"/><path class="cls-36" d="M74.84,123.43c-.41,6.28-5.71,9.19-12.52,6.9C65.73,127.64,70,126.12,73,123,73.8,122.16,74.45,122.48,74.84,123.43Z"/><path class="cls-37" d="M121.29,170.4c.18,3.55.37,7.1.55,10.65v37.71l-1.17.06V213c0-12.43,0-24.86,0-37.29C120.66,174,120.27,172.08,121.29,170.4Z"/><path class="cls-38" d="M144.74,213.37c-4.57-2.91-8.68-6.17-9.39-12.07.08-1.11-.26-2.31.78-3.36,2.18,5.06,4.45,10,8.91,13.49C145.93,212.13,145.54,212.83,144.74,213.37Z"/><path class="cls-39" d="M135.52,218.34c2.42.82,2.89,3.64,5,4.82.2,2.41.4,4.81.64,7.76A17.89,17.89,0,0,1,135.52,218.34Z"/><path class="cls-40" d="M138.6,185.31l5,3.93c-.5,2.17-1,4.35-1.76,7.62C139.61,192.55,138.49,189.12,138.6,185.31Z"/><path class="cls-41" d="M129.85,199.44l.66-.2,0,20.32a4.63,4.63,0,0,1-.75-.57A59.94,59.94,0,0,1,129.85,199.44Z"/><path class="cls-42" d="M282.8,334.48h10.93C289.65,336.8,286.29,337.43,282.8,334.48Z"/><path class="cls-43" d="M66.9,101.62c2.13,2.83,2,4.63-.92,6.58C66.3,105.91,66.55,104.15,66.9,101.62Z"/><path class="cls-44" d="M111.56,32.32l2,1-5.25,3.07A5.27,5.27,0,0,1,111.56,32.32Z"/><path class="cls-45" d="M71.43,172.37c-.23-6.45,1.29-11.27,4.83-15.3,5.61-6.39,13.71-5.32,17.38,2.34,3.34,7,2.56,13.9-1.29,20.42-2.38,4-5.79,7-10.89,6.45s-7.56-4.18-9.2-8.64A17.56,17.56,0,0,1,71.43,172.37Z"/><path class="cls-46" d="M82.48,134.33c1.75-6.64,4.34-12.89,8.89-18.13,1.42-1.63,3.08-3.34,5.53-2.52,2.14.7,2.65,2.78,3.18,4.74,1,3.6.39,7.28.71,10.91-.12,1-.23,1.95-.37,2.92-.87,6.21-1.29,6.51-7.48,5.15a14,14,0,0,0-5.82-.51C84.86,137.32,83.28,136.54,82.48,134.33Z"/><path class="cls-47" d="M129.85,199.44,129.73,219c0,.16,0,.36-.15.46a3.46,3.46,0,0,1-.62.44C129,213.06,127.33,206.16,129.85,199.44Z"/><path class="cls-48" d="M32.67,209.15a2,2,0,0,0-2.06-.77c-1.26-.72-2.84-1-3.91-3.51,7.32.83,14.14.46,19.49-6.71C44.85,206.17,40.87,209,32.67,209.15Z"/><path class="cls-49" d="M39.85,183.69a2.48,2.48,0,0,1,2.81,2.78c0,2.95-1.07,5.27-4.15,5.9-1.84.39-2.77-1-2.79-2.66A5.8,5.8,0,0,1,39.85,183.69Z"/><path class="cls-50" d="M15.29,183.64a6,6,0,0,1,4.28,6.09c0,1.7-1.05,3-2.83,2.63-3.06-.63-4.14-3-4.12-5.89A2.62,2.62,0,0,1,15.29,183.64Z"/><path class="cls-51" d="M91.55,165.61c-.61,2.92-.51,6.39-4.09,6.65-2.41.18-2.72-2.53-2.7-4.53,0-2.67.21-5.87,3.35-6.43C91.06,160.78,90.88,163.86,91.55,165.61Z"/><path class="cls-52" d="M76.78,176.2c-1.47-.48-1.27-1.7-1.24-2.81s.63-2.58,1.72-2.66c1.38-.1,1.63,1.34,1.53,2.54S78.35,175.83,76.78,176.2Z"/><path class="cls-53" d="M94.63,134.32c-.48-.07-1-.11-1.45-.22-7.51-1.73-7.68-2.07-3.84-9,.93-1.69,2.19-3.2,3.29-4.8,4.38,1.26,3.31,4.93,3.49,8C96.25,130.44,96.14,132.57,94.63,134.32Z"/><path class="cls-54" d="M94.63,134.32c-.44-4.7,1.21-9.7-2-14,.37-1.56,1.34-3.07,2.82-3,1.84.07,1.76,2.18,1.93,3.51a37,37,0,0,1-.3,11.79C96.81,134,96.61,135.4,94.63,134.32Z"/></g></g></svg>